<svg width="42" height="49" viewBox="0 0 42 49" fill="none" xmlns="http://www.w3.org/2000/svg">
<path fill-rule="evenodd" clip-rule="evenodd" d="M36.3548 33.679C39.316 30.1184 41.0968 25.5414 41.0968 20.5484C41.0968 9.19983 31.8969 0 20.5484 0C9.19983 0 0 9.19983 0 20.5484C0 25.5414 1.78081 30.1184 4.74194 33.679C6.51377 35.5436 8.08786 37.2095 9.48832 38.6918C16.5911 46.2091 19.2281 49 20.5484 49C21.1191 49 23.4476 46.6535 28.785 41.2747C30.8389 39.2049 33.3385 36.686 36.3548 33.679ZM20.5484 26.871C24.0403 26.871 26.871 24.0403 26.871 20.5484C26.871 17.0565 24.0403 14.2258 20.5484 14.2258C17.0565 14.2258 14.2258 17.0565 14.2258 20.5484C14.2258 24.0403 17.0565 26.871 20.5484 26.871Z" fill="#29B9B9"/>
</svg>
